<svg width="28" height="28" viewBox="0 0 28 28" fill="none" xmlns="http://www.w3.org/2000/svg">
<path d="M14 14C14.6417 14 15.1912 13.7713 15.6485 13.314C16.1051 12.8575 16.3334 12.3083 16.3334 11.6667C16.3334 11.025 16.1051 10.4755 15.6485 10.0182C15.1912 9.56162 14.6417 9.33334 14 9.33334C13.3584 9.33334 12.8092 9.56162 12.3527 10.0182C11.8954 10.4755 11.6667 11.025 11.6667 11.6667C11.6667 12.3083 11.8954 12.8575 12.3527 13.314C12.8092 13.7713 13.3584 14 14 14ZM14 22.575C16.3722 20.3972 18.132 18.4186 19.2792 16.639C20.4264 14.8602 21 13.2806 21 11.9C21 9.78057 20.3241 8.04495 18.9724 6.69318C17.6214 5.34218 15.9639 4.66668 14 4.66668C12.0361 4.66668 10.3783 5.34218 9.02652 6.69318C7.67552 8.04495 7.00002 9.78057 7.00002 11.9C7.00002 13.2806 7.57363 14.8602 8.72085 16.639C9.86808 18.4186 11.6278 20.3972 14 22.575ZM14 25.6667C10.8695 23.0028 8.53146 20.5283 6.98602 18.2432C5.4398 15.9588 4.66669 13.8445 4.66669 11.9C4.66669 8.98334 5.60508 6.65973 7.48185 4.92918C9.35785 3.19862 11.5306 2.33334 14 2.33334C16.4695 2.33334 18.6422 3.19862 20.5182 4.92918C22.395 6.65973 23.3334 8.98334 23.3334 11.9C23.3334 13.8445 22.5606 15.9588 21.0152 18.2432C19.469 20.5283 17.1306 23.0028 14 25.6667Z" fill="#252525"/>
</svg>
