<svg width="24" height="24" viewBox="0 0 24 24" fill="none" xmlns="http://www.w3.org/2000/svg">
<path d="M18.4 20.7498H18.17C15.5788 20.4678 13.0893 19.5844 10.9 18.1698C8.86618 16.8744 7.13938 15.151 5.84 13.1198C4.42216 10.9248 3.53852 8.42799 3.26 5.82977C3.22816 5.51986 3.2596 5.20672 3.35243 4.90934C3.44525 4.61195 3.59752 4.33653 3.8 4.09977C3.99694 3.85984 4.24002 3.66187 4.51486 3.51758C4.78969 3.37329 5.09068 3.28562 5.4 3.25977H8C8.56312 3.26033 9.10747 3.46223 9.53476 3.829C9.96205 4.19578 10.2441 4.70324 10.33 5.25977C10.425 5.97464 10.6028 6.67603 10.86 7.34977C11.0164 7.77315 11.0487 8.2324 10.9531 8.6735C10.8574 9.11461 10.6378 9.51923 10.32 9.83977L9.71 10.4498C10.6704 11.966 11.9587 13.2474 13.48 14.1998L14.09 13.5998C14.4105 13.282 14.8152 13.0624 15.2563 12.9667C15.6974 12.871 16.1566 12.9033 16.58 13.0598C17.2545 13.3146 17.9556 13.4924 18.67 13.5898C19.236 13.6749 19.7515 13.9636 20.1198 14.4018C20.488 14.84 20.6837 15.3975 20.67 15.9698V18.3698C20.67 18.9939 20.4227 19.5927 19.9823 20.035C19.5419 20.4773 18.9442 20.7271 18.32 20.7298L18.4 20.7498ZM8 4.74977H5.61C5.49265 4.75752 5.37809 4.789 5.27325 4.84228C5.1684 4.89556 5.07545 4.96955 5 5.05977C4.92658 5.14428 4.871 5.24277 4.83663 5.34932C4.80226 5.45587 4.7898 5.56827 4.8 5.67977C5.04249 8.03654 5.83362 10.3038 7.11 12.2998C8.28664 14.1464 9.85332 15.7131 11.7 16.8898C13.6973 18.1796 15.967 18.9875 18.33 19.2498C18.4529 19.2567 18.5759 19.238 18.6912 19.195C18.8065 19.152 18.9117 19.0855 19 18.9998C19.1592 18.8365 19.2489 18.6178 19.25 18.3898V15.9998C19.2545 15.7893 19.1817 15.5845 19.0453 15.4242C18.9089 15.2638 18.7184 15.1591 18.51 15.1298C17.6839 15.0187 16.8724 14.8175 16.09 14.5298C15.9359 14.4721 15.7686 14.4594 15.6075 14.493C15.4464 14.5267 15.2982 14.6053 15.18 14.7198L14.18 15.7198C14.0629 15.834 13.912 15.9073 13.7499 15.9289C13.5877 15.9506 13.423 15.9193 13.28 15.8398C11.1462 14.634 9.37997 12.8712 8.17 10.7398C8.08718 10.5977 8.05402 10.4322 8.07575 10.2692C8.09748 10.1062 8.17286 9.95513 8.29 9.83977L9.29 8.83977C9.40468 8.72379 9.48357 8.57727 9.51726 8.41769C9.55095 8.2581 9.53802 8.0922 9.48 7.93977C9.19119 7.15775 8.98997 6.34613 8.88 5.51977C8.85519 5.30503 8.75133 5.10722 8.58865 4.96488C8.42597 4.82254 8.21613 4.74585 8 4.74977Z" fill="#F55D3E"/>
</svg>
