<svg width="44" height="44" viewBox="0 0 44 44" fill="none" xmlns="http://www.w3.org/2000/svg">
<path d="M22 10.8167C22.5056 10.8167 23.0063 10.9163 23.4734 11.1098C23.9405 11.3033 24.3649 11.5868 24.7224 11.9443C25.0799 12.3019 25.3635 12.7263 25.557 13.1934C25.7505 13.6605 25.85 14.1611 25.85 14.6667C25.85 15.1723 25.7505 15.6729 25.557 16.14C25.3635 16.6071 25.0799 17.0316 24.7224 17.3891C24.3649 17.7466 23.9405 18.0302 23.4734 18.2236C23.0063 18.4171 22.5056 18.5167 22 18.5167C20.979 18.5167 19.9997 18.1111 19.2777 17.3891C18.5557 16.6671 18.15 15.6878 18.15 14.6667C18.15 13.6456 18.5557 12.6664 19.2777 11.9443C19.9997 11.2223 20.979 10.8167 22 10.8167ZM22 27.3167C27.445 27.3167 33.1834 29.9934 33.1834 31.1667V33.1834H10.8167V31.1667C10.8167 29.9934 16.555 27.3167 22 27.3167ZM22 7.33337C17.9484 7.33337 14.6667 10.615 14.6667 14.6667C14.6667 18.7184 17.9484 22 22 22C26.0517 22 29.3334 18.7184 29.3334 14.6667C29.3334 10.615 26.0517 7.33337 22 7.33337ZM22 23.8334C17.105 23.8334 7.33337 26.29 7.33337 31.1667V34.8334C7.33337 35.8417 8.15837 36.6667 9.16671 36.6667H34.8334C35.8417 36.6667 36.6667 35.8417 36.6667 34.8334V31.1667C36.6667 26.29 26.895 23.8334 22 23.8334Z" fill="#252525"/>
</svg>
